<svg xmlns="http://www.w3.org/2000/svg" viewBox="0 0 466.33 435.64"><g id="Capa_2" data-name="Capa 2"><g id="Capa_1-2" data-name="Capa 1"><path d="M466.33,217.82a219.78,219.78,0,0,1-2.21,31.1,217.2,217.2,0,0,1-59.86,121.17c-1.06,1.09-2.2,2.23-3.35,3.34a216.77,216.77,0,0,1-121.16,60c-5.62.81-11.34,1.41-17.09,1.78l-.08.36-9.53,0c-1.52,0-3,.05-4.55.05H45L74.42,268.87h59.24l8.55-48.5h47.47L170.25,330.55h73.42l.49,0c1.38.05,2.8.08,4.34.08,1,0,2,0,3.05,0h.29l1,0a113.76,113.76,0,0,0,18.37-2.21,111.36,111.36,0,0,0,28.31-9.93,113.74,113.74,0,0,0,39.19-33A111.55,111.55,0,0,0,359,240.38a114.08,114.08,0,0,0,0-45.14,113.24,113.24,0,0,0-28.13-54.31,114.6,114.6,0,0,0-14.63-13.15,111.87,111.87,0,0,0-67.75-22.69H103.29L121.81,0H248.5c2.44,0,4.8,0,7,.11a218.12,218.12,0,0,1,24.26,2.13,216.66,216.66,0,0,1,95,38.09A218.5,218.5,0,0,1,400.91,62.2c1.12,1.09,2.26,2.23,3.38,3.38a217.89,217.89,0,0,1,41.06,58.87,215.81,215.81,0,0,1,18.77,62.28A219.53,219.53,0,0,1,466.33,217.82Z"/><polygon points="121.66 136.77 112.21 190.37 103.66 238.87 0 238.87 18 136.77 121.66 136.77"/></g></g></svg>